# xmcd
#
# Track frame offsets:
#	182
#	41202
#	101877
#	128862
#
# Disc length: 2493 seconds
#
# Revision: 1
# Processed by: cddbd v1.5.1PL0 Copyright (c) Steve Scherf et al.
# Submitted via: CDex 1.50Beta5
#
DISCID=3609bb04
DTITLE=Paavo Berglund and Chember Orchestra of Europe - Sibelius:Symphonie Nr.2
DYEAR=1900
DGENRE=
TTITLE0=第1楽章
TTITLE1=第2楽章
TTITLE2=第3楽章
TTITLE3=第4楽章
EXTD=
EXTT0=
EXTT1=
EXTT2=
EXTT3=
PLAYORDER=
